<svg width="139" height="48" viewBox="0 0 139 48" fill="none" xmlns="http://www.w3.org/2000/svg">
<path fill-rule="evenodd" clip-rule="evenodd" d="M38.2638 38.3781H20.9357L12.4077 29.822L21.0298 21.1851L38.2638 38.3781Z" fill="#E6007A"/>
<path fill-rule="evenodd" clip-rule="evenodd" d="M38.2638 3.83984L21.0542 21.1851L12.4077 12.5061L21.0542 3.83984H38.2638Z" fill="#E6007A"/>
<path fill-rule="evenodd" clip-rule="evenodd" d="M12.4797 12.5122L21.1284 21.1013L12.4985 29.7053L3.9165 21.1372V21.0076L12.4797 12.5122Z" fill="#AB005B"/>
<path fill-rule="evenodd" clip-rule="evenodd" d="M12.4077 29.7859L3.9165 38.3781V21.1851L12.4077 29.7859Z" fill="#E6007A"/>
<path fill-rule="evenodd" clip-rule="evenodd" d="M12.4077 12.5465L3.87834 21.0554V21.1852L3.84003 21.1477V3.99219L12.4077 12.5465Z" fill="#E6007A"/>
<mask id="mask0_1152_1800" style="mask-type:alpha" maskUnits="userSpaceOnUse" x="70" y="16" width="21" height="29">
<path d="M70.9282 16.8486H90.5116V44.1597H70.9282V16.8486Z" fill="white"/>
</mask>
<g mask="url(#mask0_1152_1800)">
<path fill-rule="evenodd" clip-rule="evenodd" d="M85.7842 28.3124C85.0671 30.0826 83.7586 33.2011 83.0832 34.7188C82.6614 35.6882 82.1548 36.7839 81.6058 37.9643C80.7615 39.8185 80.1709 41.1252 78.6943 44.1597H72.0254C73.1226 43.0632 73.5028 42.5581 74.1782 41.6303C75.233 40.1134 75.9933 38.7643 77.8076 35.0137L70.9282 16.8486H77.7652L81.1841 26.7108H81.2681L84.9399 16.8486H90.5116L85.7842 28.3124Z" fill="white"/>
</g>
<path fill-rule="evenodd" clip-rule="evenodd" d="M93.1125 35.2592H99.4617V5.1333H93.1125V35.2592Z" fill="white"/>
<path fill-rule="evenodd" clip-rule="evenodd" d="M104.817 35.2592H111.242V15.5557H104.817V35.2592Z" fill="white"/>
<path fill-rule="evenodd" clip-rule="evenodd" d="M128.474 35.2589V25.4343C128.474 23.4192 127.462 22.1589 125.777 22.1589C124.091 22.1589 123.08 23.4192 123.08 25.4343V35.2589H116.674V16.0879H122.785V19.5985C124.807 17.3724 126.662 16.3653 128.811 16.3653C132.478 16.3653 134.88 19.0523 134.88 23.0411V35.2589H128.474Z" fill="white"/>
<path fill-rule="evenodd" clip-rule="evenodd" d="M111.625 8.67071C111.625 10.6668 109.999 12.2843 107.992 12.2843C105.985 12.2843 104.358 10.6668 104.358 8.67071C104.358 6.67536 105.985 5.05713 107.992 5.05713C109.999 5.05713 111.625 6.67536 111.625 8.67071Z" fill="#E6007A"/>
<path fill-rule="evenodd" clip-rule="evenodd" d="M45.6841 4.75293H52.4477V19.1479L61.9093 4.75293H69.9211L59.5334 19.9124L70.9282 35.8675L62.5133 35.8678L52.4477 21.6308V35.8678L45.6841 35.8675V4.75293Z" fill="white"/>
</svg>
