<svg width="16" height="11" viewBox="0 0 16 11" fill="none" xmlns="http://www.w3.org/2000/svg">
<path d="M14.9402 7.96452e-07C15.0224 -0.000155786 15.1027 0.0227791 15.1702 0.0657074C15.2377 0.108636 15.2892 0.169594 15.3179 0.240198C15.3474 0.309345 15.3527 0.38517 15.3331 0.45722C15.3135 0.52927 15.2698 0.593812 15.2082 0.642071L8.25288 6.38226C8.17957 6.44116 8.08542 6.4736 7.98794 6.4736C7.89047 6.4736 7.79631 6.44116 7.72301 6.38226L0.773737 0.642071C0.71349 0.592232 0.671106 0.526834 0.652161 0.454494C0.633216 0.382154 0.638599 0.306409 0.667597 0.236926C0.696595 0.167443 0.747852 0.107433 0.814628 0.0651621C0.881404 0.0228907 0.960573 0.000243138 1.04172 7.96452e-07H14.9402ZM0.000240035 1.32885L7.71691 7.68876C7.78998 7.75037 7.88562 7.78446 7.98489 7.78446C8.08416 7.78446 8.17981 7.75037 8.25288 7.68876L16 1.32885V1.39592C16 1.42384 16 1.44611 16 1.46845V9.537C16 9.72958 15.9585 9.92024 15.8779 10.0981C15.7974 10.2759 15.6793 10.4374 15.5305 10.5733C15.3816 10.7092 15.205 10.8169 15.0107 10.8901C14.8164 10.9633 14.6083 11.0007 14.3982 11H1.60813C1.39807 11.0007 1.18992 10.9633 0.995616 10.8901C0.801312 10.8169 0.624678 10.7092 0.475856 10.5733C0.327035 10.4374 0.20895 10.2759 0.128377 10.0981C0.0478044 9.92024 0.00633496 9.72958 0.00633649 9.537V1.46845C0.00129629 1.42207 -0.000743403 1.37546 0.000240035 1.32885Z" fill="white"/>
</svg>
