<svg width="16" height="15" viewBox="0 0 16 15" fill="none" xmlns="http://www.w3.org/2000/svg">
<g clip-path="url(#clip0_1152_1819)">
<path fill-rule="evenodd" clip-rule="evenodd" d="M11.7358 14.1835C11.9243 14.317 12.1673 14.3504 12.3839 14.2684C12.6005 14.1859 12.7598 14.0009 12.8078 13.7766C13.3166 11.3856 14.5507 5.33363 15.0138 3.15862C15.049 2.99469 14.9904 2.82432 14.8616 2.71484C14.7328 2.60536 14.5542 2.57374 14.395 2.63288C11.9401 3.54152 4.38 6.37811 1.28991 7.52152C1.09378 7.59412 0.966144 7.78264 0.972584 7.98931C0.97961 8.19657 1.11895 8.3763 1.31977 8.43661C2.70556 8.85112 4.52461 9.4278 4.52461 9.4278C4.52461 9.4278 5.37471 11.9951 5.8179 13.3007C5.87352 13.4646 6.00174 13.5934 6.17094 13.6379C6.33955 13.6818 6.51988 13.6356 6.64575 13.5167C7.35768 12.8446 8.45836 11.8054 8.45836 11.8054C8.45836 11.8054 10.5496 13.3387 11.7358 14.1835ZM5.28981 9.10345L6.27281 12.3458L6.49119 10.2925C6.49119 10.2925 10.2891 6.86697 12.4542 4.91444C12.5174 4.85706 12.5262 4.76105 12.4735 4.69372C12.4214 4.62639 12.3254 4.61058 12.2534 4.65625C9.74404 6.25867 5.28981 9.10345 5.28981 9.10345Z" fill="white"/>
</g>
<defs>
<clipPath id="clip0_1152_1819">
<rect width="14.0512" height="14.0512" fill="white" transform="translate(0.972595 0.84668)"/>
</clipPath>
</defs>
</svg>
