<svg width="14" height="14" viewBox="0 0 14 14" fill="none" xmlns="http://www.w3.org/2000/svg">
<g clip-path="url(#clip0_1152_1823)">
<path fill-rule="evenodd" clip-rule="evenodd" d="M1.80385 3.86883C1.82049 3.7052 1.75782 3.5438 1.63579 3.43398L0.393371 1.93642V1.71289H4.25264L7.23557 8.25502L9.85796 1.71289H13.537V1.93642L12.4743 2.95531C12.3827 3.0252 12.3373 3.14001 12.3561 3.25372V10.7404C12.3373 10.8536 12.3827 10.9684 12.4743 11.0383L13.512 12.0572V12.2807H8.29163V12.0572L9.3671 11.0133C9.47248 10.9079 9.47248 10.8769 9.47248 10.7155V4.6642L6.48346 12.2563H6.07967L2.59922 4.6642V9.75259C2.57038 9.96613 2.64138 10.1819 2.79169 10.3361L4.18997 12.0322V12.2563H0.225311V12.0322L1.62359 10.3361C1.77335 10.1813 1.83991 9.96446 1.80385 9.75259V3.86883Z" fill="white"/>
</g>
<defs>
<clipPath id="clip0_1152_1823">
<rect width="13.3117" height="13.3117" fill="white" transform="translate(0.225311 0.0488281)"/>
</clipPath>
</defs>
</svg>
